{"glyphs":{"0":{"ha":771,"x_min":14,"x_max":882,"o":"m 631 0 l 882 628 l 265 628 l 14 0 l 250 0 l 469 544 l 561 544 l 601 519 l 435 103 l 481 82 l 326 82 l 293 0 l 631 0 z "},"1":{"ha":392,"x_min":14,"x_max":503,"o":"m 250 0 l 503 628 l 265 629 l 14 0 l 250 0 z "},"2":{"ha":744,"x_min":14,"x_max":856,"o":"m 603 0 l 636 83 l 289 83 l 364 272 l 713 272 l 856 629 l 269 629 l 235 546 l 546 546 l 575 522 l 525 396 l 571 376 l 169 376 q 14 0 56 92 l 603 0 z "},"3":{"ha":758,"x_min":0,"x_max":869,"o":"m 618 0 l 725 268 l 654 307 l 761 360 l 869 629 l 253 629 q 218 546 235 589 l 560 546 l 589 522 l 539 396 l 585 376 l 183 376 l 142 272 l 489 272 l 421 104 l 465 85 l 33 85 l 0 0 l 618 0 z "},"4":{"ha":732,"x_min":83,"x_max":843,"o":"m 354 0 l 593 1 l 699 268 l 628 307 l 735 360 l 843 629 l 607 629 q 564 522 585 576 l 513 397 l 558 376 l 363 378 l 464 629 l 226 629 q 131 393 176 513 l 83 272 l 463 272 l 354 0 z "},"5":{"ha":758,"x_min":0,"x_max":869,"o":"m 619 1 q 769 378 693 189 l 389 378 l 456 547 l 599 547 l 553 429 l 790 429 l 869 629 l 458 631 l 253 629 q 110 272 182 460 l 489 272 l 422 104 l 467 85 l 33 85 l 0 1 l 619 1 z "},"6":{"ha":726,"x_min":-14,"x_max":857,"o":"m 606 1 q 756 378 679 190 l 375 378 l 443 547 l 586 547 l 539 431 l 776 431 l 857 631 l 239 631 q 69 211 151 422 l -14 1 l 606 1 m 453 85 l 257 85 l 333 274 l 476 274 l 408 104 l 453 85 z "},"7":{"ha":686,"x_min":125,"x_max":825,"o":"m 574 1 q 825 631 699 317 l 207 631 q 125 431 165 532 l 364 431 l 411 547 l 554 547 q 335 1 428 231 l 574 1 z "},"8":{"ha":732,"x_min":-28,"x_max":843,"o":"m 592 3 l 843 631 l 225 631 q 56 211 139 422 l -28 3 l 592 3 m 557 379 l 361 379 l 429 549 l 572 549 l 513 399 l 557 379 m 440 86 l 244 86 l 319 274 l 463 274 l 394 106 l 440 86 z "},"9":{"ha":753,"x_min":-14,"x_max":857,"o":"m 606 3 q 857 632 731 318 l 239 632 q 179 485 213 568 q 121 339 146 403 l 96 275 l 476 275 l 408 106 l 454 86 l 258 86 l 313 222 l 74 222 l -14 3 l 606 3 m 571 379 l 375 379 l 444 549 l 586 549 l 526 399 l 571 379 z "}," ":{"ha":417,"x_min":0,"x_max":0,"o":""}," ":{"ha":417,"x_min":0,"x_max":0,"o":""},"!":{"ha":393,"x_min":28,"x_max":518,"o":"m 335 172 l 518 629 l 281 629 l 97 174 l 335 172 m 265 0 l 318 131 l 81 131 l 28 0 l 265 0 z "},"\"":{"ha":197,"x_min":125,"x_max":300,"o":"m 292 526 l 300 629 l 217 629 l 224 526 l 292 526 m 200 526 l 208 629 l 125 629 l 133 526 l 200 526 z "},"#":{"ha":574,"x_min":42,"x_max":629,"o":"m 401 31 l 461 179 l 529 179 l 561 260 l 493 260 l 529 349 l 597 349 l 629 429 l 561 429 l 629 599 l 500 599 l 432 429 l 340 429 l 407 599 l 278 599 l 210 429 l 143 429 l 110 349 l 178 349 l 142 260 l 75 260 l 42 179 l 110 179 l 50 31 l 179 31 l 239 179 l 332 179 l 272 31 l 401 31 m 364 260 l 272 260 l 307 349 l 400 349 l 364 260 z "},"$":{"ha":735,"x_min":0,"x_max":818,"o":"m 357 0 l 372 40 l 606 40 l 713 304 l 494 344 l 560 507 l 601 507 l 578 449 q 540 360 543 364 l 764 401 q 792 469 779 436 q 818 538 804 501 l 701 588 l 592 588 l 608 629 l 494 629 l 478 588 l 217 588 q 168 461 192 525 l 128 357 l 369 317 l 290 121 l 243 121 l 304 275 l 288 293 l 69 249 l 0 76 l 68 40 l 258 40 l 242 0 l 357 0 m 388 364 l 342 372 l 396 507 l 446 507 l 388 364 m 447 121 l 406 121 l 476 299 l 517 293 l 447 121 z "},"%":{"ha":693,"x_min":28,"x_max":740,"o":"m 186 418 q 242 441 219 418 q 265 496 265 464 q 242 552 265 529 q 186 575 219 575 q 131 552 154 575 q 108 496 108 529 q 131 441 108 464 q 186 418 154 418 m 579 50 q 634 73 611 50 q 657 128 657 96 q 634 184 657 161 q 579 207 611 207 q 524 184 547 207 q 501 128 501 161 q 524 73 501 96 q 579 50 547 50 m 579 96 q 556 106 565 96 q 546 128 546 115 q 556 151 546 142 q 579 161 565 161 q 603 151 593 161 q 613 128 613 142 q 603 106 613 115 q 579 96 593 96 m 219 0 l 740 629 l 549 629 l 28 0 l 219 0 m 186 464 q 164 474 174 464 q 154 496 154 483 q 164 519 154 510 q 186 529 174 529 q 210 519 200 529 q 219 496 219 510 q 210 474 219 483 q 186 464 200 464 z "},"&":{"ha":718,"x_min":0,"x_max":808,"o":"m 557 0 l 640 210 l 433 210 l 390 103 l 436 83 l 240 83 l 425 546 l 568 546 l 503 381 l 407 381 l 365 276 l 724 278 l 765 382 l 710 382 l 808 629 l 253 629 q 82 208 165 421 l 0 0 l 557 0 z "},"'":{"ha":144,"x_min":135,"x_max":218,"o":"m 210 525 l 218 628 l 135 628 l 143 525 l 210 525 z "},"(":{"ha":474,"x_min":56,"x_max":564,"o":"m 308 0 l 331 54 q 263 101 282 67 q 253 139 253 118 q 265 196 253 164 l 358 433 q 532 574 401 560 l 564 629 l 432 629 q 260 573 328 629 q 161 433 192 517 l 69 196 q 56 124 56 157 q 82 43 56 86 q 189 0 108 0 l 308 0 z "},")":{"ha":464,"x_min":28,"x_max":539,"o":"m 147 0 l 28 0 l 50 54 q 225 196 171 78 l 322 433 q 339 504 339 474 q 331 544 339 519 q 260 574 322 569 l 272 629 l 403 629 q 506 602 474 629 q 539 522 539 575 q 519 433 539 482 l 422 196 q 307 56 386 113 q 147 0 228 0 z "},"*":{"ha":203,"x_min":125,"x_max":318,"o":"m 250 451 l 299 483 l 254 533 l 318 529 l 318 588 l 238 569 l 251 629 l 192 629 l 206 569 l 125 588 l 125 529 l 185 533 l 138 483 l 186 451 l 221 522 l 250 451 z "},"+":{"ha":526,"x_min":111,"x_max":531,"o":"m 379 104 l 363 272 l 531 256 l 531 374 l 363 357 l 379 525 l 263 525 l 278 357 l 111 374 l 111 256 l 278 272 l 263 104 l 379 104 z "},",":{"ha":204,"x_min":14,"x_max":174,"o":"m 100 -81 l 174 101 l 67 101 l 26 0 l 76 0 l 64 -31 l 22 -28 l 14 -56 l 100 -81 z "},"-":{"ha":385,"x_min":83,"x_max":446,"o":"m 411 261 l 446 364 l 118 364 l 83 261 l 411 261 z "},"­":{"ha":385,"x_min":83,"x_max":446,"o":"m 411 261 l 446 364 l 118 364 l 83 261 l 411 261 z "},".":{"ha":213,"x_min":14,"x_max":163,"o":"m 121 0 l 14 0 l 56 103 l 163 103 l 121 0 z "},"/":{"ha":335,"x_min":14,"x_max":396,"o":"m 144 0 l 396 629 l 267 629 l 14 0 l 144 0 z "},":":{"ha":265,"x_min":83,"x_max":263,"o":"m 221 363 l 114 363 l 156 465 l 263 465 l 221 363 m 190 118 l 83 118 l 125 221 l 232 221 l 190 118 z "},";":{"ha":264,"x_min":69,"x_max":261,"o":"m 156 39 l 229 221 l 122 221 l 82 119 l 132 119 l 119 89 l 78 90 l 69 64 l 156 39 m 219 363 l 113 363 l 153 465 l 261 465 l 219 363 z "},"<":{"ha":814,"x_min":97,"x_max":911,"o":"m 767 0 l 251 272 q 911 629 582 450 l 660 629 l 97 333 l 97 188 l 444 0 l 767 0 z "},"=":{"ha":476,"x_min":111,"x_max":474,"o":"m 439 326 l 474 429 l 146 429 l 111 326 l 439 326 m 439 172 l 474 275 l 146 275 l 111 172 l 439 172 z "},">":{"ha":983,"x_min":153,"x_max":968,"o":"m 621 0 l 297 0 l 813 272 l 153 629 l 406 629 l 968 333 l 968 188 l 621 0 z "},"?":{"ha":771,"x_min":0,"x_max":872,"o":"m 307 174 l 68 174 l 107 268 l 549 413 l 603 549 l 497 549 l 450 528 l 436 496 q 429 478 431 485 q 427 472 428 472 q 179 446 426 472 l 253 629 l 872 629 l 781 403 l 340 257 q 325 221 329 228 l 324 215 q 323 214 324 214 q 322 213 322 214 q 322 210 322 211 q 321 208 321 210 l 307 174 m 236 0 l 288 128 l 50 126 l 0 0 l 236 0 z "},"@":{"ha":863,"x_min":56,"x_max":964,"o":"m 713 0 l 238 0 l 56 243 l 210 629 l 964 629 l 783 176 l 301 176 l 240 263 l 261 314 q 313 443 289 378 l 651 443 q 682 525 668 483 l 279 525 l 174 258 l 283 111 l 757 111 l 713 0 m 588 282 l 610 338 l 467 338 l 444 282 l 588 282 z "},"A":{"ha":740,"x_min":0,"x_max":838,"o":"m 701 0 l 621 35 l 838 579 l 708 629 l 140 629 l 257 579 l 219 579 l 0 36 l 83 0 l 224 0 l 264 101 l 218 122 l 417 121 l 368 0 l 701 0 m 511 225 l 314 225 l 443 546 l 546 546 l 581 531 l 465 244 l 511 225 z "},"B":{"ha":729,"x_min":0,"x_max":833,"o":"m 697 0 l 615 36 l 696 239 l 625 278 l 733 331 l 833 579 l 704 629 l 138 629 l 254 579 l 214 579 l 0 35 l 79 0 l 697 0 m 397 85 l 254 85 l 318 243 l 264 243 l 310 222 l 318 243 l 461 243 l 397 85 m 557 347 l 360 347 l 440 546 l 543 546 l 574 522 l 511 367 l 557 347 z "},"C":{"ha":739,"x_min":0,"x_max":836,"o":"m 701 1 l 618 36 l 694 225 l 678 243 l 447 200 l 408 103 l 453 83 l 256 85 q 390 417 326 249 l 442 546 l 546 546 l 578 525 l 528 400 l 738 378 l 761 390 l 836 579 l 706 629 l 139 629 l 257 579 l 219 579 l 0 36 l 82 1 l 701 1 z "},"D":{"ha":738,"x_min":0,"x_max":835,"o":"m 79 0 l 700 1 l 617 36 l 835 579 l 706 629 l 140 629 l 256 579 l 218 579 l 0 35 l 79 0 m 453 83 l 256 83 l 442 546 l 533 546 l 574 519 l 407 103 l 453 83 z "},"E":{"ha":739,"x_min":0,"x_max":836,"o":"m 699 0 l 618 36 l 694 226 l 681 244 l 449 201 l 408 104 l 454 85 l 258 85 l 321 244 l 443 244 l 485 349 l 364 349 l 442 547 l 536 547 l 576 521 l 528 401 l 740 379 l 761 392 l 836 579 l 713 628 l 147 628 l 256 579 l 219 579 l 0 35 l 82 0 l 699 0 z "},"F":{"ha":738,"x_min":0,"x_max":835,"o":"m 321 0 l 238 36 l 311 222 l 260 244 l 444 244 l 485 350 l 364 350 q 442 549 426 507 l 535 547 l 575 522 q 526 401 550 464 l 738 381 q 760 393 757 390 l 835 579 l 714 629 l 149 629 l 256 579 l 218 579 l 0 36 l 82 0 l 321 0 z "},"G":{"ha":739,"x_min":0,"x_max":836,"o":"m 82 0 l 700 1 l 618 36 l 694 226 l 678 244 l 390 192 l 353 126 l 426 150 l 401 86 l 257 86 l 443 547 l 536 547 l 576 522 l 528 401 l 747 381 l 761 392 l 836 579 l 714 629 l 147 629 q 200 605 174 618 q 256 579 226 592 l 218 579 l 0 36 l 82 0 z "},"H":{"ha":711,"x_min":-14,"x_max":821,"o":"m 671 0 l 603 36 l 821 579 l 699 629 l 604 629 l 499 367 l 544 349 l 349 349 q 405 489 381 432 q 461 629 429 546 l 133 629 l 242 579 l 203 579 l -14 36 l 68 0 l 210 0 l 299 224 l 249 244 l 449 244 l 351 0 l 671 0 z "},"I":{"ha":357,"x_min":0,"x_max":454,"o":"m 319 0 l 238 36 l 454 579 l 332 631 l 149 631 l 256 579 l 218 579 l 0 36 l 82 0 l 319 0 z "},"J":{"ha":715,"x_min":-28,"x_max":819,"o":"m 650 -81 l 186 -81 l -28 0 l 39 163 l 51 169 l 268 146 l 219 24 l 258 0 l 404 1 l 358 19 q 544 488 378 74 l 569 550 l 435 550 l 403 531 l 450 411 l 433 393 l 264 435 l 206 578 l 326 631 l 699 631 l 819 579 l 568 -46 l 650 -81 z "},"K":{"ha":690,"x_min":-14,"x_max":788,"o":"m 643 0 l 569 36 l 654 247 l 560 304 l 688 331 l 788 578 l 665 631 l 571 631 l 465 367 l 511 347 l 349 347 q 406 490 376 419 q 463 631 435 561 l 135 631 l 242 578 l 204 578 l -14 36 l 68 0 l 210 0 l 299 222 l 250 243 l 415 244 l 318 0 l 643 0 z "},"L":{"ha":708,"x_min":-14,"x_max":694,"o":"m 694 0 l 613 36 l 689 228 l 672 246 l 442 204 l 394 83 l 185 85 l 253 113 q 460 629 408 497 l 133 629 l 242 578 l 204 578 l -14 36 l 67 0 l 694 0 z "},"M":{"ha":913,"x_min":-14,"x_max":1010,"o":"m 542 0 q 807 1 674 1 l 875 1 l 792 36 l 1010 579 l 890 629 l 758 629 l 464 210 l 464 629 l 136 629 l 242 579 l 203 579 l -14 36 l 68 0 l 210 0 q 340 326 274 165 l 322 0 l 449 0 l 675 333 l 542 0 z "},"N":{"ha":792,"x_min":-14,"x_max":900,"o":"m 753 0 l 683 36 q 810 356 744 194 l 900 579 l 778 629 l 592 629 l 700 579 l 663 579 l 521 228 l 444 594 l 457 629 l 131 629 l 239 579 l 201 579 l -14 36 l 67 0 l 207 0 q 291 213 250 107 q 375 422 332 318 l 454 56 l 433 0 l 753 0 z "},"O":{"ha":719,"x_min":-14,"x_max":824,"o":"m 514 0 l 606 36 l 681 221 q 824 579 754 400 l 706 629 l 136 629 l 242 579 l 204 579 l -14 36 l 57 0 l 514 0 m 385 85 l 192 85 l 253 110 l 432 556 l 524 557 l 564 531 l 385 85 m 132 629 z "},"P":{"ha":704,"x_min":-14,"x_max":808,"o":"m 306 0 l 224 36 l 236 68 q 310 251 307 247 l 526 251 l 708 331 l 808 579 l 685 629 l 149 629 l 242 579 l 204 579 l -14 36 l 53 0 l 306 0 m 536 357 l 353 357 l 432 556 l 511 556 l 551 531 l 490 376 l 536 357 z "},"Q":{"ha":738,"x_min":0,"x_max":842,"o":"m 578 532 q 494 322 547 454 q 408 108 442 190 l 407 104 l 453 85 l 257 83 l 275 131 q 446 557 361 344 l 538 558 l 578 532 m 236 629 l 150 629 l 256 579 l 218 579 l 0 36 l 68 0 l 464 0 l 510 -61 l 696 -53 l 615 36 l 628 42 q 703 235 660 126 q 785 438 747 344 q 836 567 822 531 q 842 579 840 576 l 714 629 l 236 629 m 224 594 l 224 594 l 150 629 l 224 594 z "},"R":{"ha":701,"x_min":-14,"x_max":806,"o":"m 663 0 l 589 36 l 671 243 l 603 282 l 706 329 l 806 576 l 700 629 l 606 628 l 133 629 l 242 578 l 204 578 l -14 36 l 69 0 l 210 0 l 307 243 l 433 243 l 338 0 l 663 0 m 531 349 l 349 350 l 429 549 l 506 549 l 546 522 l 485 369 l 531 349 z "},"S":{"ha":718,"x_min":-14,"x_max":822,"o":"m 688 0 l 606 36 l 697 264 l 374 410 l 401 472 q 435 549 419 511 l 540 549 l 571 538 l 522 418 l 540 401 l 769 443 l 822 579 l 707 629 l 140 629 l 246 579 l 201 579 q 167 490 181 528 q 132 399 153 451 l 457 253 l 394 103 l 440 83 l 283 85 l 250 104 l 303 233 l 286 251 l 54 208 l -14 36 l 53 0 l 688 0 z "},"T":{"ha":651,"x_min":69,"x_max":756,"o":"m 399 0 l 317 36 q 400 246 360 149 q 494 482 444 353 l 668 482 l 699 435 l 756 579 l 642 629 l 69 629 l 175 579 l 138 579 l 99 482 l 308 482 l 247 457 l 79 36 l 150 0 l 399 0 z "},"U":{"ha":717,"x_min":-14,"x_max":821,"o":"m 57 0 l 686 1 l 604 36 l 821 579 l 699 629 l 606 631 l 390 93 l 436 74 l 240 74 l 463 631 l 135 631 l 242 579 l 206 579 l -14 36 l 57 0 z "},"V":{"ha":718,"x_min":56,"x_max":824,"o":"m 685 0 l 603 35 q 715 314 653 163 q 824 581 775 457 l 700 629 l 606 631 l 400 118 l 285 189 l 461 629 l 135 629 l 242 579 l 204 579 l 56 211 l 396 0 l 685 0 z "},"W":{"ha":1094,"x_min":-14,"x_max":1199,"o":"m 64 0 l 1067 1 l 985 36 l 1017 118 q 1199 579 1178 529 l 1079 629 l 985 629 l 765 85 l 567 85 l 635 114 l 842 629 l 514 629 l 622 579 l 585 579 l 386 85 l 188 85 l 256 114 l 463 629 l 135 629 l 243 579 l 206 579 l -14 36 l 64 0 z "},"X":{"ha":817,"x_min":-14,"x_max":865,"o":"m 800 0 l 669 0 l 503 238 l 296 36 l 367 0 l 51 0 l -14 29 l 390 399 l 207 629 l 339 629 l 471 472 l 589 579 l 625 579 l 521 629 l 776 629 l 865 579 l 582 313 l 800 0 z "},"Y":{"ha":726,"x_min":-28,"x_max":831,"o":"m 663 -78 l 581 -42 q 731 333 653 143 l 831 579 l 707 629 l 614 629 l 576 540 q 515 385 546 467 l 561 364 l 365 364 l 472 629 l 143 631 l 253 579 l 214 579 l 129 368 l 382 258 l 464 258 l 368 19 l 414 0 l 264 0 l 228 24 l 275 140 l 257 158 l 28 117 l -28 -22 l 100 -78 l 663 -78 z "},"Z":{"ha":722,"x_min":-14,"x_max":826,"o":"m 40 0 l -14 35 l 82 268 l 522 414 l 576 549 l 472 549 l 424 529 l 381 424 l 350 406 l 153 447 l 171 492 q 207 579 188 536 l 246 579 l 140 629 l 703 629 l 826 581 l 756 403 l 314 258 l 244 83 l 349 85 l 397 104 l 451 238 l 483 256 l 679 214 l 657 158 q 607 36 629 94 l 689 1 l 40 0 z "},"[":{"ha":390,"x_min":-14,"x_max":494,"o":"m 243 0 l 283 101 l 156 101 l 328 529 l 454 529 l 494 629 l 238 629 l -14 0 l 243 0 z "},"\\":{"ha":556,"x_min":125,"x_max":507,"o":"m 507 0 l 378 0 l 125 629 l 256 629 l 507 0 z "},"]":{"ha":407,"x_min":0,"x_max":510,"o":"m 257 0 l 510 629 l 253 629 l 213 528 l 339 528 l 168 100 l 40 100 l 0 0 l 257 0 z "},"^":{"ha":396,"x_min":125,"x_max":469,"o":"m 469 404 l 350 404 l 301 519 l 231 404 l 125 404 l 267 624 l 364 624 l 469 404 z "},"_":{"ha":563,"x_min":28,"x_max":524,"o":"m 483 0 l 524 103 l 68 103 l 28 0 l 483 0 z "},"`":{"ha":147,"x_min":125,"x_max":253,"o":"m 253 526 l 224 629 l 125 629 l 169 526 l 253 526 z "},"a":{"ha":711,"x_min":0,"x_max":772,"o":"m 694 0 l 81 0 l 0 36 l 88 254 l 110 267 l 472 267 l 494 322 l 554 349 l 125 349 l 149 407 l 186 407 l 78 453 l 700 453 l 772 421 l 618 33 l 694 0 m 408 106 l 432 161 l 288 161 l 267 106 l 408 106 z "},"b":{"ha":711,"x_min":0,"x_max":772,"o":"m 693 0 l 617 33 l 772 421 l 699 453 l 351 453 l 415 479 l 475 626 l 147 626 l 256 581 l 218 581 l 0 36 l 81 0 l 693 0 m 407 106 l 264 106 l 363 347 q 451 349 365 349 l 556 349 l 496 322 l 407 106 z "},"c":{"ha":713,"x_min":0,"x_max":774,"o":"m 694 0 l 81 1 l 0 36 l 149 407 l 188 407 l 78 453 l 701 453 l 774 421 l 728 304 l 706 293 l 485 293 l 507 349 l 364 349 l 278 131 l 218 106 l 647 106 l 618 33 l 694 0 z "},"d":{"ha":746,"x_min":0,"x_max":857,"o":"m 82 0 l 0 36 l 169 453 l 550 453 l 601 581 l 639 581 l 529 626 l 857 626 l 621 33 l 697 1 l 82 0 m 411 106 l 456 215 q 508 347 496 319 q 419 349 506 349 l 315 349 l 354 322 l 268 106 l 411 106 z "},"e":{"ha":713,"x_min":0,"x_max":774,"o":"m 693 0 l 79 0 l 0 35 l 149 407 l 186 406 l 78 453 l 700 453 l 774 421 l 685 200 l 663 186 l 299 188 l 276 131 l 217 106 l 647 104 l 618 33 l 693 0 m 483 292 l 506 349 l 363 347 l 340 292 l 483 292 z "},"f":{"ha":686,"x_min":0,"x_max":794,"o":"m 314 0 l 225 1 l 81 0 l 0 36 l 218 581 l 256 581 l 147 626 l 672 626 l 794 575 l 760 490 l 738 478 l 517 478 q 524 494 522 489 q 526 501 526 500 l 526 503 l 535 522 l 433 522 l 376 379 l 479 379 l 439 275 l 285 275 l 322 247 l 238 33 l 314 0 z "},"g":{"ha":724,"x_min":-97,"x_max":785,"o":"m 600 -271 l 519 -236 l 785 421 l 711 453 l 89 453 l 197 406 l 160 406 l 11 36 l 92 0 l 376 1 l 310 -167 l 168 -167 l 197 -93 l -24 -93 l -46 -106 l -97 -236 l -17 -271 l 600 -271 m 419 106 l 226 106 l 286 131 l 383 369 l 526 369 l 467 225 l 419 106 z "},"h":{"ha":713,"x_min":0,"x_max":774,"o":"m 699 0 l 619 35 l 774 421 l 700 453 l 351 453 l 417 479 l 475 626 l 147 626 l 257 581 l 219 581 l 0 36 l 81 0 l 224 0 q 365 348 364 347 q 440 349 365 349 l 556 349 l 496 322 l 367 0 l 699 0 z "},"i":{"ha":351,"x_min":0,"x_max":476,"o":"m 407 453 l 168 453 l 219 581 l 257 581 l 149 626 l 476 626 l 407 453 m 319 0 l 239 35 l 385 401 l 147 401 l 0 36 l 82 0 l 319 0 z "},"j":{"ha":647,"x_min":-167,"x_max":717,"o":"m 535 -271 l 453 -236 l 717 421 l 644 453 l 110 453 l 65 342 l 219 275 l 278 275 l 306 349 l 450 349 l 243 -167 l 100 -167 l 128 -93 l -92 -93 l -114 -106 l -167 -236 l -85 -271 l 535 -271 z "},"k":{"ha":725,"x_min":0,"x_max":786,"o":"m 699 0 l 618 36 l 686 207 l 585 250 l 722 293 l 786 453 l 549 453 l 483 292 l 340 292 l 475 626 l 147 626 l 256 581 l 218 581 l 0 36 l 81 0 l 224 0 l 299 188 l 490 188 l 431 161 l 365 0 l 699 0 z "},"l":{"ha":714,"x_min":0,"x_max":700,"o":"m 700 0 l 619 36 l 671 165 l 658 178 l 439 178 l 408 106 l 265 106 l 475 626 l 147 626 l 256 581 l 218 581 l 0 36 l 81 0 l 700 0 z "},"m":{"ha":1093,"x_min":0,"x_max":1154,"o":"m 700 0 l 619 36 l 686 203 q 753 371 703 249 l 944 371 l 885 344 q 747 1 860 278 l 1081 1 l 1000 36 q 1075 225 1050 158 l 1154 421 l 1081 453 l 74 453 l 186 407 l 147 407 l 39 135 l 0 36 l 81 0 l 222 0 q 266 110 249 68 q 297 185 283 151 q 327 261 310 219 q 371 371 344 303 l 563 369 l 503 344 q 462 242 478 281 q 434 172 446 203 q 407 103 422 142 q 367 0 392 64 l 700 0 z "},"n":{"ha":711,"x_min":0,"x_max":772,"o":"m 699 0 l 617 36 l 772 422 l 701 453 l 75 453 l 186 406 l 149 406 l 0 36 l 81 0 l 222 0 l 371 369 l 563 369 l 503 344 l 367 0 l 699 0 z "},"o":{"ha":711,"x_min":0,"x_max":774,"o":"m 547 0 l 79 0 l 0 35 l 149 407 l 186 406 l 78 453 l 699 453 l 774 421 l 618 36 l 547 0 m 408 106 l 506 349 l 363 349 l 276 131 l 217 106 l 408 106 z "},"p":{"ha":722,"x_min":-111,"x_max":786,"o":"m 217 -271 l -111 -271 l 158 404 l 194 404 l 83 453 l 713 453 l 786 421 l 636 53 l 515 0 l 236 0 l 144 -225 l 107 -225 l 217 -271 m 435 106 l 532 347 l 388 347 l 292 106 l 435 106 z "},"q":{"ha":714,"x_min":0,"x_max":775,"o":"m 592 -271 l 511 -236 l 775 421 l 701 453 q 469 454 586 454 l 74 453 q 183 406 160 417 l 149 406 l 0 36 l 82 0 l 365 0 l 258 -271 l 592 -271 m 408 106 l 265 106 l 364 347 l 508 347 l 408 106 z "},"r":{"ha":713,"x_min":0,"x_max":774,"o":"m 318 0 l 81 0 l 0 36 l 149 407 l 186 407 l 78 453 l 700 453 l 774 421 l 726 304 l 706 292 l 483 292 l 506 349 l 363 349 l 238 36 l 318 0 z "},"s":{"ha":718,"x_min":1,"x_max":775,"o":"m 694 0 l 82 0 l 1 36 l 51 161 l 290 161 l 267 106 l 408 106 l 428 153 l 104 292 l 150 407 l 188 407 l 79 453 l 701 453 l 775 421 l 724 292 l 486 292 l 507 349 l 365 349 l 346 301 l 671 163 l 618 33 l 694 0 z "},"t":{"ha":704,"x_min":0,"x_max":700,"o":"m 700 0 l 619 36 l 672 165 l 660 178 l 440 178 l 410 104 l 267 104 l 364 349 l 479 349 l 521 453 l 407 453 l 476 626 l 149 626 l 257 579 l 219 579 l 168 453 l 121 453 l 79 349 l 126 349 l 0 35 l 81 0 l 700 0 z "},"u":{"ha":711,"x_min":0,"x_max":772,"o":"m 697 0 l 618 36 l 772 417 l 692 453 l 550 453 l 411 106 l 219 106 l 279 132 l 406 453 l 78 453 l 188 407 l 151 407 l 0 31 l 71 0 l 697 0 z "},"v":{"ha":706,"x_min":69,"x_max":767,"o":"m 703 0 l 621 36 l 767 403 l 644 451 l 647 453 l 550 453 l 414 107 l 299 179 l 406 453 l 78 453 l 188 406 l 150 406 q 110 303 124 340 q 69 200 96 265 l 390 0 l 703 0 z "},"w":{"ha":1099,"x_min":0,"x_max":1154,"o":"m 1079 0 l 1001 35 l 1154 418 l 1074 453 l 931 453 l 783 83 l 590 83 l 651 110 q 719 281 689 204 q 788 453 749 358 l 453 453 l 535 418 l 400 83 l 208 83 l 268 110 l 406 453 l 78 453 l 188 407 l 149 407 l 0 32 l 74 0 l 1079 0 z "},"x":{"ha":665,"x_min":0,"x_max":708,"o":"m 644 0 l 489 0 l 390 118 l 313 46 l 276 46 l 382 0 l 67 0 l 0 29 l 264 267 l 106 453 l 260 453 l 351 346 l 415 403 l 451 403 l 349 453 l 625 453 l 708 418 l 475 199 l 644 0 z "},"y":{"ha":724,"x_min":-97,"x_max":785,"o":"m 601 -271 l 521 -236 l 785 421 l 711 453 l 560 453 l 419 106 l 226 106 l 288 131 l 418 453 l 89 453 l 197 406 l 160 406 l 11 36 l 93 0 l 376 1 l 311 -167 l 169 -167 l 197 -93 l -22 -93 l -44 -106 l -97 -236 l -15 -271 l 601 -271 z "},"z":{"ha":744,"x_min":0,"x_max":806,"o":"m 735 0 l 53 0 l 0 35 l 63 192 q 325 246 128 201 l 517 290 l 550 372 l 372 372 l 343 299 l 311 281 l 115 322 l 149 407 l 188 407 q 134 430 161 419 q 81 453 107 440 l 725 453 l 806 418 l 747 271 l 289 164 l 265 106 l 443 107 l 460 147 l 490 164 l 688 122 l 653 38 l 735 0 z "},"{":{"ha":372,"x_min":50,"x_max":492,"o":"m 239 0 l 196 0 q 122 19 142 0 q 103 71 103 39 q 108 139 103 103 q 114 197 114 169 q 111 238 114 211 q 67 285 108 265 q 50 290 58 289 q 56 306 53 299 q 63 322 60 314 q 69 339 65 331 q 180 396 146 357 q 232 481 214 435 q 273 551 249 518 q 347 606 297 585 q 492 628 397 628 l 479 597 q 402 563 424 593 q 369 489 381 532 q 321 387 357 436 q 182 315 285 338 q 238 244 236 293 l 238 228 q 226 146 238 188 q 215 75 215 104 q 216 54 215 71 q 253 33 217 38 l 239 0 z "},"|":{"ha":322,"x_min":153,"x_max":272,"o":"m 272 0 l 153 0 l 153 629 l 272 629 l 272 0 z "},"}":{"ha":396,"x_min":0,"x_max":440,"o":"m 0 0 l 13 31 q 88 65 67 35 q 121 139 110 96 q 170 241 133 192 q 308 313 207 290 q 253 383 254 335 l 253 399 q 265 485 253 440 q 275 553 275 524 q 274 573 275 556 q 238 594 274 590 l 251 628 l 296 628 q 368 608 349 628 q 388 557 388 589 q 382 489 388 525 q 376 431 376 458 q 379 390 376 417 q 424 343 382 363 q 440 338 432 339 l 422 289 q 311 232 344 271 q 258 147 278 193 q 218 76 242 110 q 0 0 161 0 z "},"~":{"ha":471,"x_min":69,"x_max":506,"o":"m 339 189 q 397 206 360 189 q 506 308 433 224 l 475 388 q 363 338 404 338 q 293 378 328 338 q 232 419 269 406 q 208 424 222 424 q 118 397 174 424 l 69 271 q 153 299 118 299 q 254 240 203 299 q 339 189 301 189 z "},"¡":{"ha":397,"x_min":0,"x_max":489,"o":"m 238 0 l 419 456 l 183 457 l 0 0 l 238 0 m 438 499 l 489 629 l 251 629 l 200 499 l 438 499 z "},"¢":{"ha":746,"x_min":28,"x_max":801,"o":"m 332 0 l 218 0 l 253 89 l 108 89 l 28 124 l 196 540 q 267 539 199 539 l 433 539 l 469 629 l 583 629 l 549 540 l 729 540 l 801 510 l 756 393 l 733 381 l 513 381 l 535 436 l 507 436 l 410 193 l 675 193 l 636 94 l 367 89 l 332 0 m 294 193 l 393 436 l 343 436 l 246 193 l 294 193 z "},"£":{"ha":761,"x_min":0,"x_max":849,"o":"m 0 0 l 617 1 l 650 83 l 271 83 l 326 225 l 469 225 l 503 306 l 360 306 l 456 546 l 558 546 l 590 525 l 539 400 l 750 376 l 772 390 l 849 579 l 718 629 l 251 629 l 119 306 l 69 306 l 36 225 l 86 225 q 0 0 40 113 z "},"¤":{"ha":531,"x_min":139,"x_max":475,"o":"m 399 96 l 475 163 l 410 194 q 460 308 460 240 q 410 422 460 376 l 475 456 l 399 522 l 363 451 q 307 461 336 461 q 251 451 278 461 l 215 522 l 139 456 l 204 422 q 154 308 154 376 q 204 194 154 240 l 139 163 l 215 96 l 251 165 q 307 156 278 156 q 363 165 336 156 l 399 96 m 307 247 q 264 265 282 247 q 246 308 246 283 q 264 351 246 333 q 307 369 282 369 q 350 351 332 369 q 368 308 368 333 q 350 265 368 283 q 307 247 332 247 z "},"¥":{"ha":781,"x_min":0,"x_max":858,"o":"m 593 -79 l 635 22 l 707 22 l 742 110 l 669 110 l 682 140 l 754 140 l 789 228 l 717 228 l 858 579 l 735 629 l 642 629 l 604 540 q 542 383 574 467 l 588 363 l 443 364 l 392 363 l 419 431 q 499 629 478 575 l 263 629 l 157 367 l 410 257 l 492 257 l 479 228 l 385 228 l 350 140 l 444 140 l 432 110 l 338 110 l 303 22 l 397 22 l 389 0 l 290 0 l 256 22 l 301 139 l 285 157 l 54 115 l 0 -24 l 128 -79 l 593 -79 z "},"¦":{"ha":310,"x_min":153,"x_max":253,"o":"m 253 0 l 253 264 l 153 264 l 153 0 l 253 0 m 253 365 l 253 628 l 153 628 l 153 365 l 253 365 z "},"§":{"ha":569,"x_min":-14,"x_max":678,"o":"m 165 629 l 589 629 l 678 594 l 678 592 q 632 486 644 486 q 461 456 493 458 q 450 472 450 467 l 486 560 q 456 568 467 568 l 385 568 l 339 461 q 581 353 556 369 l 458 28 q 513 6 506 6 l 513 0 l 40 0 q -14 31 17 4 q 43 160 36 160 q 217 190 200 190 q 228 176 217 189 q 190 79 190 85 q 217 65 207 65 l 319 65 l 319 68 q 296 79 311 68 l 342 193 q 97 304 107 293 q 208 592 190 554 l 233 592 l 233 594 q 165 625 171 625 l 165 629 m 313 378 q 285 310 285 324 q 372 274 360 274 q 396 344 396 329 q 313 381 321 381 l 313 378 z "},"¨":{"ha":356,"x_min":113,"x_max":469,"o":"m 167 628 l 294 628 l 294 625 q 240 500 250 500 l 113 500 l 113 503 q 167 628 157 628 m 342 628 l 469 628 l 469 625 q 415 500 426 500 l 288 500 q 342 628 329 619 z "},"©":{"ha":522,"x_min":126,"x_max":543,"o":"m 333 529 q 528 399 463 529 q 543 317 543 357 q 426 132 543 199 q 336 110 376 110 q 139 246 204 110 q 126 313 126 282 l 126 326 q 236 503 126 435 q 333 529 286 529 m 169 319 q 275 167 169 219 q 339 156 308 156 q 488 256 432 156 q 497 322 497 290 q 386 475 497 428 q 329 483 363 483 q 181 376 232 483 q 169 319 172 349 m 225 403 l 446 403 q 476 389 456 403 q 447 342 460 342 l 374 342 l 369 343 q 375 363 375 358 l 329 363 q 294 282 324 358 l 279 278 l 279 276 l 426 276 l 431 274 q 421 250 421 256 q 443 240 438 240 l 443 236 l 226 236 q 194 254 194 244 q 249 385 243 375 l 256 385 l 256 388 q 225 399 228 399 l 225 403 z "},"ª":{"ha":386,"x_min":113,"x_max":514,"o":"m 160 629 l 474 629 q 514 610 510 621 l 436 410 l 439 410 q 474 397 465 397 l 474 390 l 165 390 q 113 413 143 390 q 165 532 153 532 l 357 532 q 389 569 365 569 l 389 572 l 182 572 l 175 575 q 197 607 186 607 l 197 610 q 160 622 161 622 l 160 629 m 254 450 l 326 450 q 332 475 326 453 l 267 475 q 254 450 260 475 z "},"«":{"ha":614,"x_min":101,"x_max":582,"o":"m 240 482 l 392 482 l 392 479 q 203 306 392 475 l 200 306 l 200 303 l 394 154 l 394 151 l 243 151 q 101 239 232 151 l 101 349 q 240 482 189 436 m 450 482 l 582 482 l 582 479 l 386 300 q 582 154 393 300 l 582 151 q 522 154 542 154 l 449 154 l 253 299 l 253 303 l 450 482 z "},"¬":{"ha":506,"x_min":117,"x_max":585,"o":"m 163 628 l 579 628 l 585 625 q 560 358 565 390 q 457 342 546 358 q 454 344 457 344 l 457 350 q 471 522 463 450 l 122 522 l 117 525 q 163 628 153 622 z "},"®":{"ha":528,"x_min":117,"x_max":543,"o":"m 331 632 q 518 515 449 632 q 543 417 543 467 q 403 217 543 282 q 331 203 378 207 q 142 317 211 203 q 117 413 117 363 l 117 422 q 250 615 117 550 q 331 632 276 628 m 161 417 q 256 268 161 321 q 329 250 292 250 q 488 364 440 250 q 496 417 496 389 q 388 574 496 526 q 325 585 364 585 q 179 490 233 585 q 161 417 161 450 m 250 518 l 422 518 q 461 500 432 518 q 418 415 429 415 q 399 408 399 408 q 415 397 399 404 l 415 393 q 392 328 415 388 q 411 321 407 321 l 411 317 l 311 317 l 311 319 q 340 393 311 324 l 300 393 q 268 317 274 317 l 231 317 q 199 325 224 317 q 267 500 201 342 q 274 501 271 501 l 274 504 q 250 513 271 504 l 250 518 m 340 490 l 315 428 l 367 428 l 367 431 l 358 433 l 358 435 q 376 485 358 439 q 358 490 364 490 l 340 490 z "},"¯":{"ha":558,"x_min":132,"x_max":660,"o":"m 157 631 l 656 631 l 660 629 q 635 554 639 554 l 138 554 q 132 560 132 554 q 157 631 153 631 z "},"°":{"ha":203,"x_min":140,"x_max":325,"o":"m 233 633 q 325 558 297 633 l 325 538 q 257 451 325 476 q 236 449 247 449 l 224 449 q 143 521 171 449 q 140 540 143 536 q 229 631 156 631 q 233 633 229 633 m 197 544 l 197 535 q 233 503 197 507 q 271 540 271 503 q 239 576 267 576 l 229 576 q 197 544 197 569 z "},"±":{"ha":493,"x_min":126,"x_max":449,"o":"m 247 532 l 331 532 l 335 531 q 332 524 332 526 q 321 406 332 503 q 446 417 436 417 l 449 413 l 449 331 q 443 326 449 326 q 321 338 439 326 q 324 331 324 333 l 332 215 q 335 213 335 215 l 331 211 l 247 211 l 242 213 q 254 338 254 322 q 129 326 138 326 l 126 331 l 126 413 q 131 417 128 417 q 254 406 143 417 q 242 531 251 449 l 247 532 m 164 169 l 443 169 l 443 167 q 414 97 421 97 l 133 97 l 133 100 q 164 169 156 169 z "},"²":{"ha":326,"x_min":88,"x_max":439,"o":"m 197 624 l 439 624 l 439 621 q 376 474 385 474 l 238 474 q 207 399 231 474 l 347 399 l 347 394 q 329 357 339 357 l 93 357 q 88 364 88 357 q 157 521 147 517 l 307 521 l 301 531 q 319 581 319 571 l 310 586 l 185 586 l 178 590 q 197 624 190 624 z "},"³":{"ha":361,"x_min":82,"x_max":449,"o":"m 192 625 l 449 625 l 449 622 q 394 506 408 506 q 363 486 363 492 q 388 468 388 481 q 340 357 347 360 l 88 357 q 82 363 82 357 q 100 397 94 397 l 265 397 q 258 404 265 404 l 288 474 l 147 474 l 142 476 q 164 521 153 513 l 315 521 l 310 531 q 328 581 328 572 l 318 588 l 179 588 l 174 590 q 192 625 185 625 z "},"´":{"ha":157,"x_min":131,"x_max":278,"o":"m 168 629 l 278 629 q 224 511 231 511 l 136 511 q 131 517 131 511 q 168 629 160 629 z "},"µ":{"ha":449,"x_min":139,"x_max":467,"o":"m 146 625 l 250 625 q 257 618 257 624 l 257 349 q 343 346 314 346 l 381 346 l 381 618 q 388 625 382 625 l 460 625 q 467 618 467 624 l 467 235 q 460 228 467 228 l 388 228 q 381 235 381 228 l 381 260 l 257 260 l 257 7 q 250 0 257 0 l 146 0 q 139 7 139 0 l 139 618 q 146 625 140 625 z "},"¶":{"ha":582,"x_min":132,"x_max":553,"o":"m 139 625 l 546 625 q 553 618 553 624 l 553 542 q 546 535 553 535 l 522 535 l 522 7 q 515 0 522 0 l 442 0 q 435 7 435 0 l 435 535 l 397 535 l 397 7 q 390 0 397 0 l 314 0 q 307 7 307 0 l 307 258 l 139 258 q 132 265 132 258 l 132 618 q 139 625 132 625 z "},"·":{"ha":175,"x_min":126,"x_max":286,"o":"m 172 628 l 279 628 l 286 625 q 236 518 247 528 l 126 518 q 172 628 161 621 z "},"∙":{"ha":175,"x_min":126,"x_max":286,"o":"m 172 628 l 279 628 l 286 625 q 236 518 247 528 l 126 518 q 172 628 161 621 z "},"¸":{"ha":351,"x_min":42,"x_max":281,"o":"m 96 276 l 104 276 q 201 264 201 276 l 201 185 l 256 185 q 281 160 261 185 l 281 8 q 272 0 281 0 l 42 0 q 75 67 50 38 l 168 67 l 168 118 l 96 118 q 88 126 88 118 l 88 268 q 96 276 89 276 z "},"¹":{"ha":169,"x_min":97,"x_max":286,"o":"m 197 625 l 281 625 q 286 619 286 624 q 186 381 196 393 l 103 381 l 97 383 q 197 625 190 618 z "},"º":{"ha":332,"x_min":72,"x_max":432,"o":"m 181 633 l 426 633 l 432 631 q 328 375 333 385 l 313 372 l 196 372 q 189 378 189 372 q 207 413 201 411 l 254 413 l 254 415 q 247 418 247 415 l 313 588 q 293 596 310 596 l 267 596 q 171 372 258 586 l 78 372 l 72 375 q 181 633 175 628 z "},"»":{"ha":715,"x_min":132,"x_max":674,"o":"m 132 489 l 276 489 q 501 283 471 318 l 282 118 l 207 118 q 132 115 182 118 l 132 118 q 321 263 140 131 l 349 288 l 132 485 l 132 489 m 343 489 l 517 489 l 674 338 l 674 218 q 519 115 669 211 l 343 115 l 343 118 q 563 283 556 283 l 343 485 l 343 489 z "},"¼":{"ha":569,"x_min":50,"x_max":560,"o":"m 238 625 l 331 625 l 331 622 q 226 372 233 372 l 136 372 l 136 375 q 238 625 232 625 m 425 625 l 497 625 q 503 619 503 624 q 131 -3 472 575 l 125 -7 l 50 -7 l 50 0 q 425 625 353 511 m 318 247 l 404 247 l 410 244 l 372 146 l 438 146 l 438 149 q 428 154 428 149 q 469 247 463 247 l 560 247 l 560 244 q 506 131 522 131 q 479 119 485 119 q 503 99 503 101 q 458 -7 467 3 l 372 -7 q 365 0 365 -7 l 407 101 l 258 101 l 258 104 q 318 247 304 235 z "},"½":{"ha":564,"x_min":32,"x_max":544,"o":"m 224 633 l 311 633 l 317 631 q 211 379 219 386 l 125 379 l 118 382 q 224 633 200 593 m 413 633 l 488 633 l 488 631 q 110 -3 140 40 l 38 -3 l 32 0 l 407 631 l 413 633 m 311 253 l 539 253 l 544 250 l 485 106 l 350 106 q 319 33 343 106 l 454 33 l 454 31 q 440 -3 446 -3 l 211 -3 q 206 4 206 -3 l 268 150 l 418 150 l 418 154 q 410 160 410 154 q 428 211 428 201 q 410 217 418 217 l 296 217 l 296 219 q 311 253 303 253 z "},"¾":{"ha":672,"x_min":79,"x_max":663,"o":"m 183 625 l 422 625 l 422 622 q 363 507 386 507 q 343 494 343 501 q 367 481 367 486 q 322 374 329 374 l 85 374 l 79 376 q 97 410 90 410 l 257 410 l 257 413 q 247 418 247 413 q 271 483 247 424 l 135 483 l 135 486 q 156 528 149 522 l 299 528 q 292 533 299 533 q 310 583 310 575 q 301 590 303 590 l 171 590 l 165 593 q 183 625 178 625 m 522 625 l 594 625 l 600 622 l 231 1 l 224 -1 l 150 -1 l 150 1 q 522 625 503 599 m 422 250 l 508 250 l 514 247 q 475 149 475 156 l 540 149 l 540 151 q 532 161 532 151 q 574 250 564 244 l 663 250 l 663 247 q 611 135 622 135 q 582 122 610 135 q 606 101 606 104 q 561 -1 567 -1 l 469 -1 l 469 1 l 508 104 l 367 104 l 360 107 q 422 250 414 246 z "},"¿":{"ha":725,"x_min":-28,"x_max":840,"o":"m 608 629 l 833 629 q 840 622 840 628 q 786 499 793 499 l 560 499 l 553 503 q 608 629 600 624 m 539 454 l 765 454 l 772 451 q 721 351 736 351 q 293 208 293 218 l 246 82 l 335 82 q 407 136 389 82 q 519 168 407 168 l 660 185 l 663 178 q 583 0 596 7 l -21 0 l -28 3 q 68 229 54 213 q 501 376 500 369 q 539 454 532 454 z "},"À":{"ha":719,"x_min":-14,"x_max":824,"o":"m 688 0 l 607 35 l 824 579 l 694 629 l 126 629 l 243 579 l 206 579 l -14 36 l 69 0 l 210 0 l 251 103 l 204 122 l 403 121 l 354 0 l 688 0 m 551 679 l 522 781 l 424 781 l 468 679 l 551 679 m 497 225 l 300 225 l 429 546 l 532 546 l 567 531 l 451 244 l 497 225 z "},"Á":{"ha":718,"x_min":-14,"x_max":822,"o":"m 688 0 l 607 35 l 822 579 l 693 629 l 126 629 l 242 579 l 204 579 l -14 36 l 68 0 l 208 0 l 250 103 l 204 122 l 401 121 l 353 0 l 688 0 m 569 679 l 486 679 l 517 781 l 614 781 l 569 679 m 497 225 l 300 225 l 428 546 l 532 546 l 567 531 l 451 244 l 497 225 z "},"Â":{"ha":719,"x_min":-14,"x_max":824,"o":"m 688 0 l 607 35 l 824 579 l 694 629 l 126 629 l 243 579 l 206 579 l -14 36 l 69 0 l 210 0 l 251 103 l 204 122 l 403 121 l 354 0 l 688 0 m 625 679 l 581 781 l 439 781 l 393 679 l 476 679 l 510 740 l 542 679 l 625 679 m 497 225 l 300 225 l 429 546 l 532 546 l 567 531 l 451 244 l 497 225 z "},"Ã":{"ha":718,"x_min":-14,"x_max":822,"o":"m 688 0 l 607 35 l 822 579 l 694 629 l 126 629 l 242 579 l 204 579 l -14 36 l 68 0 l 208 0 l 250 103 l 204 122 l 401 121 l 353 0 l 688 0 m 535 654 q 574 664 550 654 q 649 719 599 674 l 628 763 q 549 736 582 736 q 528 741 539 736 q 503 759 517 746 q 464 779 489 772 q 447 781 457 781 q 386 768 424 781 l 353 699 q 411 714 386 714 q 477 684 444 714 q 535 654 510 654 m 497 225 l 300 225 l 428 546 l 532 546 l 567 531 l 451 244 l 497 225 z "},"Ä":{"ha":733,"x_min":0,"x_max":838,"o":"m 701 0 l 621 35 l 838 579 l 708 629 l 140 629 l 257 579 l 219 579 l 0 38 l 1 36 l 83 0 l 224 0 l 265 103 l 219 122 l 417 121 l 368 0 l 701 0 m 500 679 l 408 679 l 449 781 l 540 781 l 500 679 m 617 679 l 525 679 l 567 781 l 658 781 l 617 679 m 511 225 l 314 225 l 443 546 l 546 546 l 581 531 l 465 244 l 511 225 z "},"Å":{"ha":718,"x_min":-14,"x_max":822,"o":"m 688 0 l 607 35 l 822 579 l 694 629 l 544 629 q 576 696 576 656 q 551 756 576 731 q 492 781 526 781 q 431 756 456 781 q 406 696 406 731 q 438 629 406 656 l 126 629 l 243 579 l 204 579 l -14 36 l 68 0 l 210 0 l 250 103 l 204 122 l 401 121 l 353 0 l 688 0 m 492 660 q 466 670 476 660 q 456 696 456 681 q 466 722 456 711 q 492 732 476 732 q 517 722 506 732 q 528 696 528 711 q 517 670 528 681 q 492 660 506 660 m 497 225 l 300 225 l 428 546 l 532 546 l 567 531 l 451 244 l 497 225 z "},"Æ":{"ha":1101,"x_min":-14,"x_max":1206,"o":"m 686 0 l 685 1 l 1068 1 l 988 36 l 1064 226 l 1050 244 l 818 201 l 778 106 l 824 86 l 626 86 l 690 244 l 813 244 l 854 349 l 733 350 l 811 547 l 904 547 l 944 522 l 896 401 l 1108 381 l 1129 392 l 1206 579 l 1082 629 l 125 629 l 242 579 l 204 579 l -14 36 l 68 0 l 208 0 l 250 103 l 204 122 l 401 121 l 353 0 l 686 0 m 497 225 l 299 225 l 428 546 l 531 546 l 565 531 l 450 244 l 497 225 z "},"Ç":{"ha":733,"x_min":-14,"x_max":838,"o":"m 426 -171 l 426 -67 l 413 -53 l 375 -53 l 375 0 l 701 0 l 619 36 l 694 224 l 678 242 l 449 200 l 408 103 l 454 83 l 257 83 q 392 418 326 249 l 442 544 l 547 544 l 579 525 l 528 399 l 739 376 l 761 389 l 838 578 l 707 629 l 140 629 l 257 578 l 219 578 l 1 35 l 82 0 l 304 0 l 304 -94 l 356 -94 l 356 -129 l 293 -129 l 274 -171 l 426 -171 m 28 0 l -14 0 l 28 0 z "},"È":{"ha":718,"x_min":-14,"x_max":822,"o":"m 685 0 l 604 36 l 681 226 l 667 244 l 435 201 l 394 104 l 440 85 l 243 85 l 307 244 l 429 244 l 471 349 l 350 349 l 396 467 l 428 547 l 521 547 l 561 522 l 514 401 l 725 379 l 746 392 l 822 579 l 699 629 l 133 628 l 242 579 l 206 579 l -14 36 l 67 0 l 685 0 m 551 678 l 522 781 l 424 781 l 468 678 l 551 678 z "},"É":{"ha":718,"x_min":-14,"x_max":822,"o":"m 683 0 l 603 36 l 679 226 l 667 244 l 433 201 l 394 104 l 440 85 l 243 85 l 307 244 l 429 244 l 469 349 l 349 349 l 426 547 l 521 547 l 561 522 l 513 401 l 725 379 l 746 392 l 822 579 l 699 629 l 133 628 l 242 579 l 204 579 l -14 36 l 67 0 l 683 0 m 532 678 l 449 678 l 479 781 l 578 781 l 532 678 z "},"Ê":{"ha":717,"x_min":-14,"x_max":821,"o":"m 683 0 l 603 36 l 679 226 l 667 244 l 433 201 l 393 104 l 439 85 l 243 85 l 307 244 l 429 244 l 469 349 l 349 349 l 426 547 l 521 547 l 561 522 l 513 401 l 725 379 l 746 392 l 821 579 l 699 629 l 132 628 l 242 579 l 204 579 l -14 36 l 67 0 l 683 0 m 622 678 l 576 781 l 435 781 l 390 678 l 472 678 l 506 739 l 539 678 l 622 678 z "},"Ë":{"ha":718,"x_min":-14,"x_max":822,"o":"m 685 0 l 604 36 l 681 226 l 667 244 l 435 201 l 394 104 l 440 85 l 244 85 l 307 244 l 429 244 l 471 349 l 350 349 l 428 547 l 522 547 l 563 522 l 514 401 l 726 379 l 747 392 l 822 579 l 699 629 l 133 628 l 242 579 l 206 579 l -14 36 l 68 0 l 685 0 m 489 678 l 397 678 l 439 781 l 531 781 l 489 678 m 607 678 l 515 678 l 556 781 l 647 781 l 607 678 z "},"Ì":{"ha":338,"x_min":-14,"x_max":442,"o":"m 306 0 l 224 35 l 442 578 l 319 629 l 136 629 l 243 578 l 204 578 l -14 35 l 69 0 l 306 0 m 346 678 l 315 781 l 217 781 l 263 678 l 346 678 z "},"Í":{"ha":338,"x_min":-14,"x_max":442,"o":"m 306 0 l 224 35 l 442 578 l 319 629 l 135 629 l 242 578 l 204 578 l -14 35 l 68 0 l 306 0 m 356 678 l 272 678 l 301 781 l 400 781 l 356 678 z "},"Î":{"ha":338,"x_min":-14,"x_max":442,"o":"m 306 0 l 224 35 l 442 578 l 319 629 l 135 629 l 242 578 l 204 578 l -14 35 l 68 0 l 306 0 m 429 678 l 385 781 l 242 781 l 197 678 l 281 678 l 313 739 l 346 678 l 429 678 z "},"Ï":{"ha":346,"x_min":-14,"x_max":450,"o":"m 306 0 l 224 35 l 440 578 l 318 629 l 135 629 l 242 578 l 204 578 l -14 35 l 68 0 l 306 0 m 292 678 l 200 678 l 242 781 l 333 781 l 292 678 m 410 678 l 318 678 l 358 781 l 450 781 l 410 678 z "},"Ð":{"ha":717,"x_min":-14,"x_max":821,"o":"m 686 0 l 603 35 l 694 263 l 769 263 l 810 365 l 736 365 l 821 579 l 693 629 l 126 629 l 242 579 l 204 579 l -14 33 l 65 0 l 686 0 m 439 83 l 243 83 l 428 546 l 521 544 l 561 519 l 499 365 l 431 365 l 390 263 l 457 263 l 393 103 l 439 83 z "},"Ñ":{"ha":796,"x_min":-14,"x_max":900,"o":"m 753 0 l 683 36 q 810 356 744 194 l 900 579 l 776 629 l 592 629 l 700 578 l 663 578 l 522 228 l 444 594 l 458 629 l 131 629 l 239 578 l 201 578 l -14 36 l 67 0 l 208 0 q 375 422 292 214 l 454 56 l 433 0 l 753 0 m 604 654 q 644 663 619 654 q 718 719 668 672 l 696 763 q 621 735 649 735 q 574 756 600 735 q 517 781 550 781 q 456 768 493 781 l 422 699 q 482 714 457 714 q 549 682 515 714 q 604 654 576 654 z "},"Ò":{"ha":719,"x_min":-14,"x_max":824,"o":"m 535 679 l 506 781 l 407 781 l 451 679 l 535 679 m 540 0 l 606 36 l 681 222 q 824 579 754 400 l 706 629 l 136 629 l 242 579 l 204 579 l -14 36 l 56 0 l 540 0 m 385 83 l 192 83 l 253 110 l 432 556 l 524 556 l 564 531 l 385 83 m 46 629 z "},"Ó":{"ha":721,"x_min":-14,"x_max":825,"o":"m 540 0 l 606 36 l 682 222 q 825 579 754 400 l 707 629 l 136 629 l 243 579 l 204 579 l -14 36 l 57 0 l 540 0 m 526 681 l 443 681 l 474 783 l 572 783 l 526 681 m 385 83 l 192 83 l 253 110 l 432 556 l 524 556 l 564 531 l 385 83 z "},"Ô":{"ha":719,"x_min":-14,"x_max":824,"o":"m 540 0 l 606 36 l 681 222 q 824 579 754 400 l 706 629 l 136 629 l 242 579 l 204 579 l -14 36 l 56 0 l 540 0 m 601 681 l 557 783 l 414 783 l 369 681 l 453 681 l 486 742 l 518 681 l 601 681 m 385 83 l 192 83 l 253 110 l 432 556 l 524 556 l 564 531 l 385 83 z "},"Õ":{"ha":719,"x_min":-14,"x_max":824,"o":"m 540 0 l 606 36 l 682 222 q 824 579 754 400 l 706 629 l 136 629 l 242 579 l 204 579 l -14 36 l 57 0 l 540 0 m 532 654 q 571 663 546 654 q 646 719 596 672 l 624 763 q 549 735 576 735 q 501 756 525 735 q 444 781 478 781 q 383 768 421 781 l 350 699 q 408 714 385 714 q 474 684 443 714 q 532 654 506 654 m 385 83 l 192 83 l 253 110 l 432 556 l 524 556 l 564 531 l 385 83 z "},"Ö":{"ha":721,"x_min":-14,"x_max":825,"o":"m 542 0 l 607 36 l 682 222 q 825 579 756 400 l 707 629 l 138 629 l 243 579 l 206 579 l -14 36 l 57 0 l 542 0 m 475 681 l 383 681 l 425 783 l 517 783 l 475 681 m 593 681 l 501 681 l 542 783 l 633 783 l 593 681 m 385 83 l 193 83 l 254 110 l 433 556 l 525 556 l 565 531 l 385 83 z "},"×":{"ha":826,"x_min":-14,"x_max":867,"o":"m 797 0 l 665 0 l 497 231 l 433 169 q 263 0 347 88 l 53 0 l -14 28 l 382 389 l 208 629 l 339 629 l 460 463 q 639 628 585 574 l 778 628 l 867 578 l 575 304 l 797 0 z "},"Ø":{"ha":735,"x_min":-14,"x_max":825,"o":"m 322 -57 l 618 685 l 489 685 l 193 -57 l 322 -57 m 57 -1 l 542 0 l 606 35 l 682 222 q 825 578 756 400 l 707 629 l 138 629 l 243 578 l 206 578 l -14 35 l 57 -1 m 418 82 l 154 82 l 215 108 l 394 554 l 558 554 l 599 529 l 418 82 z "},"Ù":{"ha":717,"x_min":-14,"x_max":821,"o":"m 56 -1 l 686 0 l 604 35 l 821 578 l 699 628 l 604 629 l 390 92 l 436 72 l 240 72 q 463 629 282 179 l 135 629 l 242 578 l 204 578 l -14 35 l 56 -1 m 539 681 l 510 783 l 411 783 l 457 681 l 539 681 z "},"Ú":{"ha":717,"x_min":-14,"x_max":821,"o":"m 56 -1 l 686 0 l 604 35 l 821 578 l 699 628 l 606 629 l 390 92 l 436 72 l 240 72 q 463 629 282 179 l 135 629 l 242 578 l 204 578 l -14 35 l 56 -1 m 564 681 l 481 681 l 511 783 l 608 783 l 564 681 z "},"Û":{"ha":717,"x_min":-14,"x_max":821,"o":"m 57 -1 l 686 0 l 604 35 l 821 578 l 699 628 l 606 629 l 390 92 l 436 72 l 240 72 q 463 629 285 186 l 135 629 l 242 578 l 204 578 l -14 35 l 57 -1 m 617 681 l 572 783 l 429 783 l 385 681 l 468 681 l 500 742 l 533 681 l 617 681 z "},"Ü":{"ha":717,"x_min":-14,"x_max":821,"o":"m 57 -1 l 686 0 l 604 35 l 821 578 l 699 628 l 606 629 l 390 92 l 436 72 l 240 72 q 463 629 285 186 l 135 629 l 242 578 l 206 578 l -14 35 l 57 -1 m 592 681 l 600 783 l 517 783 l 524 681 l 592 681 m 500 681 l 508 783 l 425 783 l 432 681 l 500 681 z "},"Ý":{"ha":739,"x_min":-14,"x_max":843,"o":"m 579 681 l 496 681 l 526 783 l 625 783 l 579 681 m 114 -81 l 676 -79 l 594 -44 q 743 331 667 140 q 843 578 794 456 l 721 628 l 626 628 l 590 538 q 528 383 558 465 l 574 363 l 378 363 l 404 425 l 485 628 l 157 628 l 265 578 l 228 578 l 143 365 l 394 257 l 478 257 l 382 18 l 428 -1 l 278 -1 l 242 22 l 288 139 l 271 157 l 40 114 l -14 -24 l 114 -81 z "},"Þ":{"ha":544,"x_min":-14,"x_max":613,"o":"m 185 0 l 240 140 l 469 140 l 613 496 l 383 496 l 436 628 l 238 628 l -14 0 l 185 0 m 388 246 l 283 246 l 349 408 l 456 408 l 388 246 z "},"ß":{"ha":625,"x_min":-14,"x_max":667,"o":"m 501 0 l 636 335 l 549 335 l 667 628 l 239 628 l -14 0 l 185 0 l 401 540 l 510 540 l 426 335 l 382 335 l 346 247 l 476 247 l 376 0 l 501 0 z "},"à":{"ha":733,"x_min":0,"x_max":774,"o":"m 696 0 l 82 0 l 0 35 l 88 253 l 111 265 l 474 265 l 496 322 l 556 347 l 126 347 l 150 406 l 188 406 l 79 453 l 701 451 l 774 419 l 619 32 l 696 0 m 475 526 l 446 628 l 347 628 l 392 526 l 475 526 m 410 104 l 432 161 l 289 161 l 267 104 l 410 104 z "},"á":{"ha":721,"x_min":0,"x_max":774,"o":"m 696 0 l 82 0 l 0 35 l 88 253 l 110 265 l 474 265 l 496 322 l 556 347 l 126 347 l 150 406 l 188 406 l 78 453 l 701 451 l 774 419 l 619 32 l 696 0 m 476 526 l 393 526 l 422 628 l 521 628 l 476 526 m 410 104 l 432 161 l 289 161 l 267 104 l 410 104 z "},"â":{"ha":739,"x_min":0,"x_max":774,"o":"m 696 0 l 82 0 l 0 35 l 88 253 l 110 265 l 474 265 l 496 322 l 556 347 l 126 347 l 149 406 l 188 406 l 78 453 l 700 451 l 774 419 l 618 32 l 696 0 m 581 526 l 535 628 l 393 628 l 347 526 l 431 526 l 464 586 l 497 526 l 581 526 m 410 104 l 432 161 l 289 161 l 267 104 l 410 104 z "},"ã":{"ha":739,"x_min":0,"x_max":774,"o":"m 694 0 l 81 0 l 0 35 l 88 253 l 110 265 l 474 265 l 496 322 l 556 347 l 125 347 l 149 406 l 186 406 l 78 453 l 700 451 l 774 419 l 618 32 l 694 0 m 518 501 q 558 511 533 501 q 632 567 583 521 l 611 610 q 536 582 565 582 q 489 604 511 582 q 447 626 474 619 q 432 628 440 628 q 371 615 408 628 l 338 546 q 394 561 371 561 q 462 531 428 561 q 518 501 496 501 m 410 104 l 432 161 l 289 161 l 267 104 l 410 104 z "},"ä":{"ha":739,"x_min":0,"x_max":774,"o":"m 694 0 l 81 0 l 0 35 l 88 253 l 110 265 l 474 265 l 494 322 l 556 347 l 125 347 l 149 406 l 186 406 l 78 453 l 700 451 l 774 419 l 618 32 l 694 0 m 528 526 l 535 628 l 451 628 l 460 526 l 528 526 m 436 526 l 444 628 l 361 628 l 368 526 l 436 526 m 410 104 l 432 161 l 289 161 l 267 104 l 410 104 z "},"å":{"ha":738,"x_min":0,"x_max":772,"o":"m 694 0 l 81 0 l 0 35 l 88 253 l 110 265 l 472 265 l 494 322 l 554 347 l 125 347 l 149 406 l 186 406 l 78 453 l 700 451 l 772 419 l 618 32 l 694 0 m 442 485 q 497 508 474 485 q 519 563 519 531 q 497 617 519 594 q 442 640 474 640 q 387 617 410 640 q 364 563 364 594 q 387 508 364 531 q 442 485 410 485 m 442 529 q 418 539 428 529 q 408 563 408 549 q 418 586 408 576 q 442 596 428 596 q 465 586 456 596 q 475 563 475 576 q 465 539 475 549 q 442 529 456 529 m 408 104 l 431 161 l 288 161 l 267 104 l 408 104 z "},"æ":{"ha":1168,"x_min":0,"x_max":1207,"o":"m 1128 0 l 82 0 l 0 35 l 88 253 l 110 265 l 474 265 l 496 322 l 556 347 l 126 347 l 150 406 l 188 406 l 79 453 l 1132 453 l 1207 421 l 1118 199 l 1096 186 l 732 186 l 710 131 l 650 104 l 1081 104 l 1051 32 l 1128 0 m 410 104 l 432 161 l 289 161 l 267 104 l 410 104 m 917 292 l 939 347 l 796 347 l 774 292 l 917 292 z "},"ç":{"ha":713,"x_min":0,"x_max":774,"o":"m 399 -176 l 244 -176 l 265 -135 l 328 -135 l 328 -100 l 276 -100 l 276 0 l 79 0 l 0 35 l 149 406 l 186 406 l 78 453 l 701 453 l 774 421 l 726 304 l 706 292 l 483 292 l 506 347 l 363 347 l 276 131 l 217 104 l 647 104 l 618 32 l 694 0 l 347 0 l 347 -58 l 385 -58 l 399 -72 l 399 -176 z "},"è":{"ha":739,"x_min":0,"x_max":774,"o":"m 694 0 l 81 0 l 0 35 l 149 406 l 186 406 l 78 453 l 700 453 l 774 421 l 685 199 l 663 186 l 300 186 l 278 131 l 218 104 l 647 104 l 618 32 l 694 0 m 513 526 l 483 628 l 385 628 l 429 526 l 513 526 m 485 292 l 506 347 l 364 347 l 342 292 l 485 292 z "},"é":{"ha":739,"x_min":0,"x_max":774,"o":"m 694 0 l 81 0 l 0 35 l 149 406 l 186 406 l 78 453 l 700 453 l 774 421 l 685 199 l 663 186 l 300 186 l 278 131 l 218 104 l 647 104 l 618 32 l 694 0 m 489 526 l 406 526 l 435 628 l 533 628 l 489 526 m 485 292 l 506 347 l 364 347 l 342 292 l 485 292 z "},"ê":{"ha":739,"x_min":0,"x_max":774,"o":"m 694 0 l 81 0 l 0 35 l 149 406 l 186 406 l 78 453 l 700 453 l 774 421 l 685 199 l 663 186 l 300 186 l 278 131 l 218 104 l 647 104 l 618 32 l 694 0 m 579 526 l 533 628 l 392 628 l 347 526 l 429 526 l 463 586 l 496 526 l 579 526 m 485 292 l 506 347 l 364 347 l 340 292 l 485 292 z "},"ë":{"ha":739,"x_min":0,"x_max":774,"o":"m 694 0 l 79 0 l 0 35 l 149 406 l 186 406 l 78 453 l 700 453 l 774 421 l 685 199 l 663 186 l 300 186 q 288 158 293 171 q 278 131 283 146 l 218 104 l 647 104 l 618 32 l 694 0 m 515 526 l 522 628 l 439 628 l 447 526 l 515 526 m 424 526 l 431 628 l 347 628 l 356 526 l 424 526 m 485 292 l 506 347 l 364 347 l 340 292 l 485 292 z "},"ì":{"ha":346,"x_min":0,"x_max":407,"o":"m 319 0 l 239 35 l 407 453 l 168 453 l 0 35 l 82 0 l 319 0 m 358 526 l 329 628 l 231 628 l 275 526 l 358 526 z "},"í":{"ha":344,"x_min":0,"x_max":406,"o":"m 319 0 l 239 35 l 406 453 l 168 453 l 0 35 l 81 0 l 319 0 m 310 526 l 228 526 l 257 628 l 356 628 l 310 526 z "},"î":{"ha":349,"x_min":0,"x_max":410,"o":"m 319 0 l 239 35 l 407 453 l 169 453 l 0 35 l 82 0 l 319 0 m 410 526 l 364 628 l 222 628 l 176 526 l 260 526 l 293 586 l 326 526 l 410 526 z "},"ï":{"ha":346,"x_min":0,"x_max":407,"o":"m 319 0 l 239 35 l 407 453 l 168 453 l 0 35 l 82 0 l 319 0 m 361 526 l 369 628 l 286 628 l 293 526 l 361 526 m 269 526 l 278 628 l 194 628 l 203 526 l 269 526 z "},"ð":{"ha":739,"x_min":0,"x_max":774,"o":"m 538 0 l 79 0 l 0 35 l 149 406 l 186 406 l 78 453 l 586 453 l 372 547 l 293 513 l 182 513 l 318 571 l 190 628 l 292 628 l 371 594 l 449 628 l 557 628 l 426 571 l 774 421 l 619 35 l 538 0 m 408 104 l 506 347 l 363 347 l 289 160 l 276 131 l 217 104 l 408 104 z "},"ñ":{"ha":738,"x_min":0,"x_max":772,"o":"m 697 0 l 617 35 l 772 421 l 700 453 l 339 451 l 74 453 l 185 406 l 147 406 l 0 35 l 81 0 l 222 0 l 371 369 l 563 369 l 503 343 q 434 172 464 249 q 367 0 404 94 l 697 0 m 503 501 q 542 511 518 501 q 617 567 567 521 l 596 610 q 519 582 547 582 q 496 588 507 582 q 471 606 485 593 q 432 626 457 619 q 415 628 425 628 q 354 615 392 628 l 321 546 q 379 561 354 561 q 447 529 413 561 q 503 501 475 501 z "},"ò":{"ha":739,"x_min":0,"x_max":774,"o":"m 547 0 l 81 0 l 0 35 l 149 406 l 188 406 l 78 453 l 700 453 l 774 421 l 619 35 l 547 0 m 513 526 l 482 628 l 383 628 l 429 526 l 513 526 m 410 104 l 507 347 l 364 347 l 278 131 l 218 104 l 410 104 z "},"ó":{"ha":739,"x_min":0,"x_max":774,"o":"m 547 0 l 81 0 l 0 35 l 149 406 l 188 406 l 78 453 l 700 453 l 774 421 l 619 35 l 547 0 m 475 526 l 393 526 l 422 628 l 521 628 l 475 526 m 410 104 l 507 347 l 364 347 q 290 161 310 213 l 278 131 l 218 104 l 410 104 z "},"ô":{"ha":739,"x_min":0,"x_max":774,"o":"m 547 0 l 81 0 l 0 35 l 150 406 l 188 406 l 78 453 l 700 453 l 774 421 l 619 35 l 547 0 m 578 526 l 533 628 l 390 628 l 346 526 l 429 526 l 463 586 l 494 526 l 578 526 m 410 104 l 507 347 l 364 347 l 278 131 l 218 104 l 410 104 z "},"õ":{"ha":739,"x_min":0,"x_max":774,"o":"m 547 0 l 81 0 l 0 35 l 150 406 l 188 406 l 78 453 l 700 453 l 774 421 l 619 35 l 547 0 m 529 503 q 568 512 543 503 q 643 567 593 521 l 621 611 q 544 583 574 583 q 499 604 522 583 q 458 628 483 619 q 443 629 451 629 q 381 615 418 629 l 347 546 q 404 561 381 561 q 471 532 439 561 q 529 503 503 503 m 410 104 l 507 347 l 364 347 l 278 131 l 218 104 l 410 104 z "},"ö":{"ha":739,"x_min":0,"x_max":774,"o":"m 547 0 l 81 0 l 0 35 l 149 406 l 188 406 l 78 451 l 700 451 l 774 421 l 619 35 l 547 0 m 513 525 l 521 628 l 438 628 l 444 525 l 513 525 m 421 525 l 429 628 l 346 628 l 354 525 l 421 525 m 410 104 l 507 347 l 364 347 l 278 129 l 218 104 l 410 104 z "},"÷":{"ha":465,"x_min":0,"x_max":465,"o":"m 288 324 l 181 324 l 222 425 l 329 425 l 288 324 m 425 174 l 465 276 l 40 276 l 0 174 l 425 174 m 246 25 l 139 25 l 181 128 l 288 128 l 246 25 z "},"ø":{"ha":739,"x_min":0,"x_max":774,"o":"m 303 -89 l 219 -89 l 254 -1 l 81 0 l 0 35 l 149 406 l 186 406 l 78 451 l 436 451 l 471 540 l 556 540 l 519 451 l 700 451 l 774 421 l 619 35 l 547 -1 l 339 -1 l 303 -89 m 408 104 q 506 347 458 225 l 478 347 l 381 104 l 408 104 m 297 104 l 394 347 l 364 347 l 278 129 l 218 104 l 297 104 z "},"ù":{"ha":738,"x_min":0,"x_max":772,"o":"m 697 -1 l 617 35 l 772 417 l 692 451 l 549 451 l 410 104 l 218 104 l 278 131 l 406 451 l 78 451 l 186 406 l 150 406 l 0 31 l 71 -1 l 440 0 l 697 -1 m 521 525 l 490 628 l 392 628 l 438 525 l 521 525 z "},"ú":{"ha":738,"x_min":0,"x_max":772,"o":"m 697 -1 l 617 35 l 772 417 l 692 451 l 549 451 l 410 104 l 218 104 l 278 131 l 406 451 l 78 451 l 186 406 l 150 406 l 0 31 l 71 -1 l 440 0 l 697 -1 m 507 525 l 424 525 l 453 628 l 551 628 l 507 525 z "},"û":{"ha":738,"x_min":0,"x_max":772,"o":"m 697 -1 l 617 35 l 772 417 l 692 451 l 549 451 l 410 104 l 218 104 l 278 131 l 406 451 l 78 451 l 186 406 l 150 406 l 0 31 l 71 -1 l 440 0 l 697 -1 m 586 525 l 542 628 l 399 628 l 354 525 l 438 525 l 471 586 l 503 525 l 586 525 z "},"ü":{"ha":738,"x_min":0,"x_max":772,"o":"m 697 -1 l 617 35 l 772 417 l 692 451 l 550 451 l 410 104 l 218 104 l 278 131 q 344 299 313 214 l 406 451 l 78 451 l 186 406 l 150 406 l 0 31 l 72 -1 l 440 0 l 697 -1 m 551 525 l 560 628 l 476 628 l 485 525 l 551 525 m 461 525 l 468 628 l 385 628 l 393 525 l 461 525 z "},"ý":{"ha":750,"x_min":-97,"x_max":785,"o":"m 601 -272 l 521 -236 l 785 421 l 711 453 l 561 453 l 419 106 q 331 104 417 104 l 228 104 l 288 131 l 418 453 l 89 453 l 199 406 l 160 406 l 11 35 l 93 0 l 376 0 l 311 -167 l 169 -167 l 197 -94 l -22 -94 l -44 -107 l -97 -236 l -15 -272 l 601 -272 m 531 526 l 501 628 l 403 628 l 447 526 l 531 526 z "},"þ":{"ha":551,"x_min":0,"x_max":586,"o":"m 199 0 l 268 174 l 469 174 l 586 465 l 385 465 l 451 628 l 251 628 l 0 0 l 199 0 m 388 281 l 311 281 l 350 376 l 429 376 l 388 281 z "},"ÿ":{"ha":724,"x_min":-97,"x_max":785,"o":"m 600 -272 l 521 -236 l 785 421 l 711 453 l 560 453 l 419 106 q 331 104 417 104 l 226 104 l 286 131 l 418 453 l 89 453 l 197 406 l 160 406 l 11 35 l 93 0 l 376 0 l 310 -167 l 168 -167 l 197 -94 l -22 -94 l -46 -107 l -97 -236 l -17 -272 l 600 -272 m 572 526 l 581 628 l 497 628 l 506 526 l 572 526 m 482 526 l 489 628 l 406 628 l 414 526 l 482 526 z "},"ı":{"ha":388,"x_min":0,"x_max":476,"o":"m 319 0 l 82 0 l 0 36 l 219 579 l 257 579 l 149 628 l 476 628 l 239 35 l 319 0 z "},"̀":{"ha":128,"x_min":128,"x_max":256,"o":"m 256 528 l 226 629 l 128 629 l 172 528 l 256 528 z "},"́":{"ha":142,"x_min":128,"x_max":256,"o":"m 211 528 l 256 629 l 157 629 l 128 528 l 211 528 z "},"̂":{"ha":246,"x_min":136,"x_max":368,"o":"m 368 525 l 324 628 l 181 628 l 136 525 l 219 525 l 251 586 l 285 525 l 368 525 z "},"̃":{"ha":281,"x_min":125,"x_max":419,"o":"m 306 501 q 346 511 321 501 q 419 567 371 521 l 399 610 q 324 582 353 582 q 299 588 311 582 q 274 606 288 593 q 235 626 260 619 q 219 628 228 628 q 158 615 196 628 l 125 546 q 182 561 158 561 q 250 529 215 561 q 306 501 278 501 z "},"̄":{"ha":356,"x_min":126,"x_max":454,"o":"m 413 556 l 454 628 l 167 628 l 126 556 l 413 556 z "},"̇":{"ha":204,"x_min":139,"x_max":288,"o":"m 139 525 l 181 628 l 288 628 l 246 526 l 139 525 z "},"̈":{"ha":264,"x_min":110,"x_max":360,"o":"m 110 526 l 150 629 l 242 629 l 201 528 l 110 526 m 226 526 l 268 629 l 360 629 l 318 528 l 226 526 z "},"̊":{"ha":157,"x_min":128,"x_max":285,"o":"m 206 474 q 262 497 239 474 q 285 551 285 519 q 262 608 285 585 q 206 631 239 631 q 151 608 174 631 q 128 551 128 585 q 151 497 128 519 q 206 474 174 474 m 206 519 q 182 529 192 519 q 172 551 172 539 q 182 575 172 565 q 206 585 192 585 q 229 575 219 585 q 239 551 239 565 q 229 529 239 539 q 206 519 219 519 z "},"̌":{"ha":204,"x_min":103,"x_max":335,"o":"m 290 525 l 147 525 l 103 628 l 186 628 l 219 567 l 251 628 l 335 628 l 290 525 z "},"̧":{"ha":218,"x_min":14,"x_max":168,"o":"m 168 0 l 14 0 l 35 42 l 97 42 l 97 76 l 44 76 l 44 176 l 115 176 l 115 118 l 154 118 l 168 104 l 168 0 z "},"–":{"ha":415,"x_min":69,"x_max":432,"o":"m 397 249 l 432 338 l 104 338 l 69 249 l 397 249 z "},"—":{"ha":517,"x_min":69,"x_max":526,"o":"m 482 249 l 526 338 l 114 338 l 69 249 l 482 249 z "},"‘":{"ha":201,"x_min":115,"x_max":290,"o":"m 222 449 l 265 550 l 215 550 l 231 583 l 274 582 l 290 629 l 194 631 l 115 449 l 222 449 z "},"’":{"ha":176,"x_min":107,"x_max":283,"o":"m 204 447 l 283 629 l 176 629 l 132 528 l 182 528 l 167 494 l 125 496 l 107 449 l 204 447 z "},"‚":{"ha":188,"x_min":-4,"x_max":172,"o":"m 93 -81 l 172 101 l 65 101 l 21 -1 l 71 -1 l 56 -35 l 14 -32 l -4 -81 l 93 -81 z "},"“":{"ha":333,"x_min":83,"x_max":389,"o":"m 321 369 l 364 471 l 314 471 l 329 504 l 372 503 l 389 550 l 293 551 l 214 369 l 321 369 m 190 369 l 235 471 l 185 471 l 200 504 l 242 503 l 260 550 l 163 551 l 83 369 l 190 369 z "},"”":{"ha":343,"x_min":97,"x_max":403,"o":"m 194 369 l 274 551 l 167 551 l 122 450 l 172 450 l 157 417 l 115 418 l 97 371 l 194 369 m 324 369 q 403 551 356 440 l 296 551 l 253 450 l 303 450 l 288 417 l 244 418 l 228 371 l 324 369 z "},"„":{"ha":321,"x_min":-7,"x_max":299,"o":"m 89 -81 q 169 101 107 -42 l 63 101 l 18 -1 l 68 -1 l 53 -35 l 11 -32 l -7 -81 l 89 -81 m 219 -81 l 299 101 l 192 101 l 147 -1 l 197 -1 l 183 -35 l 140 -32 l 122 -81 l 219 -81 z "},"†":{"ha":379,"x_min":14,"x_max":444,"o":"m 256 0 l 94 0 l 14 36 l 171 426 l 90 426 l 125 514 l 206 514 l 232 579 l 271 579 l 163 628 l 413 628 l 367 514 l 444 514 l 408 426 l 332 426 l 175 35 l 256 0 z "},"‡":{"ha":376,"x_min":0,"x_max":461,"o":"m 274 0 l 113 0 l 32 36 l 81 158 l 0 158 l 35 246 l 115 246 l 189 426 l 108 426 l 143 514 l 224 514 l 250 579 l 288 579 l 179 628 l 431 628 l 385 514 l 461 514 l 426 426 l 350 426 l 276 246 l 353 246 l 318 158 l 242 158 l 193 35 l 274 0 z "},"•":{"ha":213,"x_min":93,"x_max":226,"o":"m 160 417 q 207 436 188 417 q 226 482 226 456 q 207 529 226 510 q 160 549 188 549 q 113 529 132 549 q 93 482 93 510 q 113 436 93 456 q 160 417 132 417 z "},"…":{"ha":408,"x_min":18,"x_max":385,"o":"m 226 0 l 135 0 l 176 101 l 268 101 l 226 0 m 110 0 l 18 0 l 58 101 l 150 101 l 110 0 m 344 0 l 253 0 l 293 101 l 385 101 l 344 0 z "},"‹":{"ha":400,"x_min":83,"x_max":382,"o":"m 382 51 l 181 203 l 381 382 l 222 382 l 83 249 l 83 139 l 218 51 l 382 51 z "},"›":{"ha":404,"x_min":83,"x_max":382,"o":"m 246 51 l 83 51 l 285 203 l 85 382 l 243 382 l 382 249 l 382 139 l 246 51 z "},"⁄":{"ha":276,"x_min":0,"x_max":382,"o":"m 129 0 l 382 628 l 251 628 l 0 0 l 129 0 z "},"∕":{"ha":276,"x_min":0,"x_max":382,"o":"m 129 0 l 382 628 l 251 628 l 0 0 l 129 0 z "},"₣":{"ha":696,"x_min":-69,"x_max":800,"o":"m 119 626 l 675 626 q 800 575 758 596 q 718 386 728 389 q 697 378 706 378 q 492 400 547 392 l 492 404 q 538 521 538 515 q 494 543 501 543 l 411 543 q 332 349 406 543 l 446 349 l 451 346 q 408 243 413 244 l 236 243 l 236 240 q 279 218 279 225 l 265 186 l 328 186 l 332 183 q 289 81 293 82 l 222 81 q 208 35 208 47 q 282 6 276 6 l 282 0 l 51 0 l -32 32 l -32 38 q -15 81 -32 46 l -64 81 q -69 86 -69 81 q -26 186 -36 175 l 28 186 q 188 578 181 576 l 211 578 l 211 581 l 119 621 l 119 626 z "},"₤":{"ha":731,"x_min":-14,"x_max":842,"o":"m 244 629 l 703 629 q 842 578 715 629 q 760 386 771 399 q 743 375 743 379 q 532 396 556 396 l 532 401 l 578 526 q 550 543 575 526 l 444 543 q 374 361 444 538 l 510 361 l 515 358 q 481 276 486 279 l 339 276 q 328 247 339 274 l 464 247 l 469 244 q 432 160 438 160 l 296 160 q 263 85 292 160 l 635 85 q 640 79 640 83 q 606 0 611 3 l -6 0 l -11 3 l 49 160 l -8 160 l -14 163 q 24 247 18 247 l 81 247 q 97 276 85 247 l 38 276 l 32 279 q 71 361 63 358 l 133 361 q 244 629 239 628 z "},"₧":{"ha":1558,"x_min":-28,"x_max":1615,"o":"m 138 628 l 911 628 q 917 622 917 626 l 849 454 l 1536 454 q 1615 419 1611 428 q 1561 292 1568 292 l 1331 292 l 1325 294 q 1344 346 1344 339 l 1208 346 q 1188 303 1204 344 q 1513 163 1493 174 l 1460 35 q 1528 6 1522 6 l 1528 0 l 526 0 q 440 38 515 0 l 529 257 l 526 257 q 506 249 514 249 l 294 249 l 210 35 l 213 35 q 286 6 279 6 l 286 0 l 43 0 q -28 40 -28 28 q 192 579 178 551 l 215 579 q 138 622 215 583 l 138 628 m 340 357 l 511 357 l 511 360 q 472 376 503 360 l 535 528 l 497 551 l 421 551 q 340 357 407 532 m 954 436 q 917 346 929 363 l 808 346 q 711 108 800 342 l 851 108 q 879 179 851 114 q 1019 182 976 182 l 1097 182 q 1111 163 1111 175 l 1131 163 l 1111 108 l 1250 108 q 1265 154 1265 153 l 946 289 q 997 408 985 408 l 1019 408 l 1019 411 l 954 436 z "},"€":{"ha":661,"x_min":14,"x_max":715,"o":"m 165 628 l 676 628 q 704 517 688 628 q 715 474 706 517 q 693 457 699 457 q 558 496 558 486 q 536 542 540 542 l 458 542 q 404 414 454 540 l 544 414 l 550 411 q 513 331 521 335 l 374 331 q 357 297 368 331 l 501 297 l 501 294 q 465 214 474 214 l 322 214 q 271 106 285 106 l 228 89 l 228 86 l 231 86 q 376 83 324 83 l 407 83 q 450 143 421 143 l 613 179 q 628 157 628 163 q 564 0 569 8 l 97 0 q 14 38 14 32 l 85 214 l 28 214 q 22 219 22 214 q 57 297 54 297 l 119 297 q 131 331 131 325 l 74 331 l 68 333 q 106 414 97 410 l 163 414 q 233 579 169 419 l 257 579 l 257 582 l 165 622 l 165 628 z "},"№":{"ha":789,"x_min":-28,"x_max":883,"o":"m 124 628 l 443 628 q 432 592 443 615 l 507 235 l 510 235 q 651 579 640 569 l 675 579 l 675 581 l 583 622 l 583 628 l 775 628 q 881 581 775 619 l 883 576 l 669 35 l 672 35 q 735 6 731 6 l 735 0 l 424 0 l 418 3 q 440 54 438 54 q 361 417 361 408 l 358 417 q 194 0 238 99 l 56 0 q -28 38 -26 32 l 189 579 l 215 579 l 215 581 l 124 622 l 124 628 z "},"™":{"ha":781,"x_min":28,"x_max":869,"o":"m 124 626 l 782 626 q 869 588 869 599 q 706 175 706 179 q 785 143 778 143 l 785 138 l 124 138 q 33 175 115 138 l 194 574 q 226 576 194 576 l 226 579 l 124 619 l 124 626 m 428 511 q 332 275 338 278 l 279 254 l 279 251 l 472 251 q 581 511 479 258 l 428 511 m 57 90 l 668 90 l 668 88 q 631 0 638 0 l 28 0 q 57 90 46 81 z "},"∂":{"ha":536,"x_min":131,"x_max":622,"o":"m 131 626 l 419 626 q 424 624 424 626 l 424 476 l 425 476 q 532 626 510 603 l 571 626 q 622 607 586 626 l 543 408 l 546 408 q 571 399 568 399 l 571 394 l 453 394 q 449 399 449 394 l 492 503 l 492 504 l 489 504 q 413 394 439 424 l 372 394 q 369 399 369 394 q 375 504 372 482 l 375 507 l 372 507 q 325 394 331 394 l 281 394 q 247 413 247 404 l 311 571 l 286 571 q 221 408 282 571 q 247 399 244 399 l 247 394 l 163 394 q 132 407 158 394 q 194 565 132 418 l 208 569 l 208 571 l 142 571 l 139 572 q 158 608 149 608 l 160 608 l 160 611 q 131 624 157 611 l 131 626 z "},"∆":{"ha":704,"x_min":-79,"x_max":656,"o":"m 403 547 q 656 4 417 511 l 647 0 l -72 0 l -79 4 q 176 547 156 508 l 403 547 m 243 426 l 101 114 l 396 114 q 250 426 272 375 l 243 426 z "},"∏":{"ha":629,"x_min":-28,"x_max":749,"o":"m 126 629 l 743 629 l 749 626 q 490 0 496 4 l 382 0 l 382 3 l 592 524 l 413 524 q 239 94 404 519 q 217 35 217 50 q 288 6 281 6 l 288 0 l 61 0 q -28 38 42 0 l 192 581 l 225 581 l 225 583 l 126 624 l 126 629 z "},"∑":{"ha":572,"x_min":-28,"x_max":676,"o":"m 224 629 l 671 629 q 676 624 676 628 q 633 522 638 522 l 308 522 q 428 342 428 351 q 169 108 193 126 l 169 106 l 465 106 l 471 103 q 425 0 432 1 l -22 0 l -28 3 q 32 119 14 119 l 292 360 q 183 522 219 465 l 181 522 l 181 525 q 224 629 217 629 z "},"−":{"ha":469,"x_min":83,"x_max":514,"o":"m 128 385 l 508 385 l 514 382 q 469 279 475 283 l 89 279 q 83 285 83 279 q 128 385 121 383 z "},"√":{"ha":558,"x_min":49,"x_max":653,"o":"m 490 629 l 646 629 q 653 622 653 628 l 403 0 l 240 0 q 143 275 219 31 q 101 229 104 229 l 56 229 l 49 233 q 94 365 86 365 l 285 365 q 326 240 293 365 q 483 625 333 240 l 490 629 z "},"∞":{"ha":550,"x_min":76,"x_max":565,"o":"m 411 447 l 426 447 q 563 354 524 447 q 565 331 565 343 q 463 218 565 251 q 426 213 442 213 l 411 213 q 283 275 333 213 q 207 240 238 240 l 182 240 q 82 303 115 240 q 76 321 76 313 l 76 339 q 172 419 76 394 l 207 419 q 286 386 233 419 l 286 389 q 411 447 335 447 m 354 333 l 354 326 q 407 283 354 293 l 429 283 q 479 331 465 283 q 429 376 465 376 l 407 376 q 354 333 354 367 m 144 331 q 190 293 151 293 q 238 331 231 293 q 194 367 238 358 q 144 331 151 367 z "},"∫":{"ha":389,"x_min":69,"x_max":435,"o":"m 196 626 l 392 626 q 435 526 400 626 l 435 524 l 332 524 q 315 560 322 528 l 313 560 l 313 6 q 307 0 313 0 l 113 0 q 69 100 108 0 l 75 103 l 175 103 q 189 74 182 103 l 192 74 l 192 621 q 196 626 192 626 z "},"≈":{"ha":486,"x_min":86,"x_max":476,"o":"m 204 475 l 222 475 q 311 425 251 475 q 340 418 325 418 l 347 418 q 451 450 376 418 l 476 393 q 326 307 386 307 l 322 307 q 211 371 292 307 q 172 382 183 382 l 154 382 q 89 368 132 382 l 86 368 l 86 371 q 140 464 126 464 q 204 475 181 475 m 208 328 l 218 328 q 322 271 247 328 q 344 267 339 271 q 447 303 371 267 q 476 242 476 249 q 336 160 381 160 l 318 160 q 204 228 292 160 q 161 235 179 235 q 86 221 139 235 l 86 224 q 147 318 125 318 q 208 328 181 328 z "},"≤":{"ha":600,"x_min":113,"x_max":546,"o":"m 333 611 l 542 611 l 542 607 l 283 371 q 546 178 529 186 l 546 171 l 342 171 q 151 289 325 171 l 151 435 l 333 611 m 172 153 l 546 153 l 546 149 q 488 13 497 14 l 119 13 l 113 17 q 172 153 163 150 z "},"≥":{"ha":600,"x_min":113,"x_max":546,"o":"m 324 611 l 506 435 l 506 289 q 317 171 332 171 l 113 171 l 113 178 q 374 371 128 186 l 115 607 l 115 611 l 324 611 m 485 153 q 546 17 494 150 l 538 13 l 169 13 q 113 149 160 14 l 113 153 l 485 153 z "},"ﬁ":{"ha":1056,"x_min":-14,"x_max":1167,"o":"m 140 628 l 693 628 q 821 574 821 586 q 742 388 751 404 l 719 379 q 511 404 511 399 q 557 522 557 517 q 511 547 521 547 l 428 547 q 351 351 428 540 l 465 351 q 471 347 471 351 q 428 243 435 250 l 254 243 l 254 242 q 297 219 297 226 l 225 35 l 228 35 q 300 6 296 6 l 300 0 l 69 0 l -14 32 q 189 547 -11 50 q 206 579 201 579 l 232 579 l 232 582 l 140 622 l 140 628 m 842 628 l 1161 628 q 1167 622 1167 628 q 1093 453 1103 457 l 864 453 l 858 456 q 913 582 908 582 l 939 582 l 939 585 l 842 622 l 842 628 m 1072 404 l 1078 401 q 933 38 933 44 l 933 35 q 1007 6 936 35 l 1007 0 l 779 0 q 693 38 735 14 q 839 404 693 49 l 1072 404 z "},"ﬂ":{"ha":1501,"x_min":0,"x_max":0,"o":""}}}
